<?xml version="1.0" encoding="UTF-8" standalone="no"?>
<!-- Created with Inkscape (http://www.inkscape.org/) -->

<svg
   width="512"
   height="512"
   viewBox="0 0 135.46666 135.46667"
   version="1.1"
   id="svg5"
   inkscape:version="1.1.2 (0a00cf5339, 2022-02-04, custom)"
   sodipodi:docname="icon.svg"
   xmlns:inkscape="http://www.inkscape.org/namespaces/inkscape"
   xmlns:sodipodi="http://sodipodi.sourceforge.net/DTD/sodipodi-0.dtd"
   xmlns="http://www.w3.org/2000/svg"
   xmlns:svg="http://www.w3.org/2000/svg">
  <sodipodi:namedview
     id="namedview7"
     pagecolor="#ffffff"
     bordercolor="#666666"
     borderopacity="1.0"
     inkscape:pageshadow="2"
     inkscape:pageopacity="0.0"
     inkscape:pagecheckerboard="0"
     inkscape:document-units="mm"
     showgrid="false"
     units="px"
     inkscape:zoom="0.77771465"
     inkscape:cx="577.97549"
     inkscape:cy="444.89325"
     inkscape:window-width="2560"
     inkscape:window-height="1369"
     inkscape:window-x="-8"
     inkscape:window-y="-8"
     inkscape:window-maximized="1"
     inkscape:current-layer="layer1" />
  <defs
     id="defs2" />
  <g
     inkscape:label="Layer 1"
     inkscape:groupmode="layer"
     id="layer1">
    <path
       style="fill:#fe5900;stroke-width:1"
       d="m 14.638547,127.90337 c -0.45231,-0.45231 -0.50154,-6.26165 -0.50154,-59.18172 0,-52.920076 0.04923,-58.7294237 0.50154,-59.1817296 C 15.071649,9.1068172 16.415002,9.03838 24.4831,9.03838 c 8.64602,0 9.382418,0.043535 9.871215,0.583664 0.487471,0.538643 0.528219,5.101646 0.528219,59.15506 0,56.337686 -0.0222,58.591536 -0.583671,59.099606 -0.514962,0.46603 -1.676936,0.52821 -9.871216,0.52821 -8.017688,0 -9.356134,-0.0685 -9.7891,-0.50155 z m 84.073092,-0.21656 c -2.357728,-1.60467 -2.372818,-1.66524 -2.550025,-10.23554 -0.17089,-8.26431 -0.27798,-8.8242 -1.998181,-10.44802 -1.76456,-1.66571 -2.115166,-1.72748 -10.768302,-1.89715 -7.677449,-0.15054 -8.201928,-0.19924 -9.255699,-0.85956 -2.037396,-1.2767 -2.058241,-1.37133 -2.236903,-10.151521 -0.157951,-7.762081 -0.183994,-8.017716 -0.957498,-9.401105 -0.437313,-0.782128 -1.417392,-1.8593 -2.177953,-2.393714 l -1.382832,-0.971655 -8.728168,-0.159582 c -9.707523,-0.177486 -9.61786,-0.157155 -11.246448,-2.550049 -0.699908,-1.028374 -0.718111,-1.268652 -0.718111,-9.47597 0,-9.349805 0.110375,-9.98692 1.958651,-11.305141 1.053867,-0.75164 1.230093,-0.768463 9.690755,-0.925142 9.663555,-0.178954 9.711625,-0.189505 11.758105,-2.580353 1.56603,-1.829545 1.806273,-3.328782 1.806273,-11.271701 0,-6.537299 0.02787,-6.840826 0.724481,-7.883546 1.369406,-2.049888 2.070714,-2.200491 10.249577,-2.201046 7.953421,-6.38e-4 9.057313,-0.17004 10.87723,-1.670168 2.165723,-1.785171 2.227773,-2.068835 2.405023,-10.994462 0.177297,-8.928988 0.180497,-8.942189 2.550025,-10.5548913 C 99.747373,9.0515804 99.941043,9.03838 109.24722,9.03838 c 9.30618,0 9.49985,0.013209 10.53559,0.7181137 0.58031,0.3949633 1.35557,1.1236093 1.72278,1.6192143 0.63991,0.863626 0.66768,1.270794 0.66768,9.790822 0,8.480767 -0.0303,8.930272 -0.65805,9.771103 -1.63721,2.192885 -1.58552,2.181603 -10.79889,2.357049 l -8.38018,0.159581 -1.31426,0.870549 c -0.72283,0.4788 -1.717134,1.555972 -2.209571,2.393714 l -0.895337,1.523166 -0.159577,7.979046 c -0.17562,8.780925 -0.19621,8.874494 -2.234119,10.151518 -1.059851,0.664127 -1.561229,0.708159 -9.787668,0.859567 l -8.670592,0.159581 -1.358502,0.957486 c -0.74717,0.526616 -1.692678,1.590472 -2.101112,2.364121 -0.710379,1.345561 -0.742623,1.702964 -0.742623,8.231133 0,7.677636 0.167637,8.391752 2.402405,10.233837 1.839289,1.516092 2.895859,1.671715 11.358584,1.673014 7.150943,9.58e-4 7.865206,0.05165 8.802378,0.623087 2.084129,1.270785 2.155039,1.576504 2.331249,10.052019 0.154887,7.449484 0.183077,7.717385 0.957484,9.097569 0.438847,0.78213 1.420151,1.8593 2.180691,2.39371 l 1.3828,0.97166 8.40907,0.15958 c 9.24576,0.17546 9.1899,0.1633 10.82777,2.35704 0.62777,0.84084 0.65805,1.29034 0.65805,9.7711 0,8.52004 -0.0277,8.92721 -0.66768,9.79083 -0.36721,0.4956 -1.14247,1.22425 -1.72278,1.61922 -1.03574,0.70491 -1.22941,0.71811 -10.53559,0.71811 -9.306177,0 -9.499847,-0.0133 -10.535581,-0.71811 z"
       id="path910" />
  </g>
</svg>
